<?xml version="1.0" encoding="UTF-8" standalone="no"?>
<!-- Created with Inkscape (http://www.inkscape.org/) -->

<svg
   id="svg7384"
   version="1.1"
   height="16"
   width="16"
   xmlns="http://www.w3.org/2000/svg"
   xmlns:svg="http://www.w3.org/2000/svg"
   xmlns:rdf="http://www.w3.org/1999/02/22-rdf-syntax-ns#"
   xmlns:cc="http://creativecommons.org/ns#"
   xmlns:dc="http://purl.org/dc/elements/1.1/">
  <metadata
     id="metadata90">
    <rdf:RDF>
      <cc:Work
         rdf:about="">
        <dc:format>image/svg+xml</dc:format>
        <dc:type
           rdf:resource="http://purl.org/dc/dcmitype/StillImage" />
        <dc:title>Gnome Symbolic Icon Theme</dc:title>
        <cc:license
           rdf:resource="http://artlibre.org/licence/lal" />
      </cc:Work>
      <cc:License
         rdf:about="http://artlibre.org/licence/lal">
        <cc:permits
           rdf:resource="http://creativecommons.org/ns#Reproduction" />
        <cc:permits
           rdf:resource="http://creativecommons.org/ns#Distribution" />
        <cc:permits
           rdf:resource="http://creativecommons.org/ns#DerivativeWorks" />
        <cc:requires
           rdf:resource="http://creativecommons.org/ns#ShareAlike" />
        <cc:requires
           rdf:resource="http://creativecommons.org/ns#Notice" />
        <cc:requires
           rdf:resource="http://creativecommons.org/ns#Attribution" />
      </cc:License>
    </rdf:RDF>
  </metadata>
  <title
     id="title9167">Gnome Symbolic Icon Theme</title>
  <defs
     id="defs7386" />
  <path
     style="fill:#bebebe;fill-opacity:1;stroke:none;stroke-width:0.694338"
     d="M 4.5,9.5 V 10 h 3 l -3,2.482247 C 4,13 4,13 4,13.5 V 14 h 0.5 c 1.0032668,0 1,0 4,-2.5 3,-2.5 3,-2.5 3,-3 V 8 H 9 C 12,5.5 12,5.5 12,4.5 V 4 h -0.5 c -0.998962,0 -0.995461,0 -4,2.5 -3.0018577,2.497769 -3,2.5 -3,3 z"
     id="path3898" />
  <path
     style="fill:#bfbfbf;fill-opacity:1;stroke-width:0.92582"
     d="M 14,2 V 16 H 2 V 2 H 3 V 15 H 13 V 3 H 3 V 2 H 6 V 1 h 4 v 1"
     id="path1" />
</svg>
